<svg width="60" height="61" viewBox="0 0 60 61" fill="none" xmlns="http://www.w3.org/2000/svg">
<g clip-path="url(#clip0_1_6)">
<path d="M30 59.2529C46.0163 59.2529 59 46.2692 59 30.2529C59 14.2366 46.0163 1.2529 30 1.2529C13.9837 1.2529 1 14.2366 1 30.2529C1 46.2692 13.9837 59.2529 30 59.2529Z" stroke="#F53838" stroke-width="2"/>
<path d="M21.25 31.5013L36.075 31.5013L31.5375 36.9513C31.3253 37.2066 31.2232 37.5357 31.2537 37.8662C31.2842 38.1967 31.4447 38.5016 31.7 38.7138C31.9553 38.926 32.2844 39.028 32.6149 38.9976C32.9454 38.9671 33.2503 38.8066 33.4625 38.5513L39.7125 31.0513C39.7545 30.9916 39.7922 30.929 39.825 30.8638C39.825 30.8013 39.825 30.7638 39.9125 30.7013C39.9692 30.558 39.9988 30.4054 40 30.2513C39.9988 30.0972 39.9692 29.9446 39.9125 29.8013C39.9125 29.7388 39.9125 29.7013 39.825 29.6388C39.7922 29.5736 39.7545 29.5109 39.7125 29.4513L33.4625 21.9513C33.345 21.8102 33.1978 21.6967 33.0314 21.6189C32.8651 21.5412 32.6836 21.501 32.5 21.5013C32.2079 21.5007 31.9249 21.6024 31.7 21.7888C31.5734 21.8937 31.4688 22.0226 31.3921 22.168C31.3154 22.3135 31.2682 22.4726 31.2531 22.6363C31.238 22.8 31.2553 22.9651 31.3041 23.1221C31.3529 23.2791 31.4322 23.425 31.5375 23.5513L36.075 29.0013H21.25C20.9185 29.0013 20.6005 29.133 20.3661 29.3674C20.1317 29.6018 20 29.9198 20 30.2513C20 30.5828 20.1317 30.9008 20.3661 31.1352C20.6005 31.3696 20.9185 31.5013 21.25 31.5013Z" fill="#F53838"/>
</g>
<defs>
<clipPath id="clip0_1_6">
<rect width="60" height="61" fill="white"/>
</clipPath>
</defs>
</svg>
