<svg width="148" height="149" viewBox="0 0 148 149" fill="none" xmlns="http://www.w3.org/2000/svg">
<g filter="url(#filter0_d_1_4)">
<circle cx="74" cy="60.2529" r="30" fill="#F53838"/>
<circle cx="74" cy="60.2529" r="29" stroke="#F53838" stroke-width="2"/>
</g>
<path d="M60.875 58.2869H83.1125L76.3062 50.8133C75.988 50.4633 75.8349 50.012 75.8806 49.5587C75.9263 49.1054 76.1671 48.6874 76.55 48.3964C76.9329 48.1054 77.4266 47.9655 77.9224 48.0073C78.4182 48.049 78.8755 48.2692 79.1938 48.6192L88.5687 58.904C88.6318 58.9858 88.6882 59.0718 88.7375 59.1611C88.7375 59.2469 88.7375 59.2983 88.8687 59.384C88.9537 59.5805 88.9982 59.7897 89 60.0011C88.9982 60.2124 88.9537 60.4216 88.8687 60.6182C88.8687 60.7039 88.8688 60.7553 88.7375 60.841C88.6882 60.9304 88.6318 61.0163 88.5687 61.0981L79.1938 71.3829C79.0175 71.5764 78.7967 71.732 78.5472 71.8387C78.2976 71.9453 78.0255 72.0004 77.75 72C77.3119 72.0008 76.8873 71.8613 76.55 71.6057C76.3601 71.4618 76.2032 71.2851 76.0882 71.0857C75.9731 70.8862 75.9023 70.668 75.8796 70.4435C75.857 70.219 75.883 69.9926 75.9562 69.7773C76.0294 69.562 76.1484 69.362 76.3062 69.1888L83.1125 61.7152H60.875C60.3777 61.7152 59.9008 61.5346 59.5492 61.2131C59.1975 60.8917 59 60.4557 59 60.0011C59 59.5465 59.1975 59.1105 59.5492 58.789C59.9008 58.4675 60.3777 58.2869 60.875 58.2869Z" fill="white"/>
<defs>
<filter id="filter0_d_1_4" x="0" y="0.25293" width="148" height="148" filterUnits="userSpaceOnUse" color-interpolation-filters="sRGB">
<feFlood flood-opacity="0" result="BackgroundImageFix"/>
<feColorMatrix in="SourceAlpha" type="matrix" values="0 0 0 0 0 0 0 0 0 0 0 0 0 0 0 0 0 0 127 0" result="hardAlpha"/>
<feOffset dy="14"/>
<feGaussianBlur stdDeviation="22"/>
<feColorMatrix type="matrix" values="0 0 0 0 0.0561111 0 0 0 0 0.0777333 0 0 0 0 0.133333 0 0 0 0.08 0"/>
<feBlend mode="normal" in2="BackgroundImageFix" result="effect1_dropShadow_1_4"/>
<feBlend mode="normal" in="SourceGraphic" in2="effect1_dropShadow_1_4" result="shape"/>
</filter>
</defs>
</svg>
